<svg id="e24bc711-9e15-4fed-90f5-8f2745b46a2e" data-name="Layer 1" xmlns="http://www.w3.org/2000/svg" width="1130" height="709.435" viewBox="0 0 1130 709.435"><title>new_decade</title><polygon points="1056.61 550.685 801.97 707.525 273.53 707.525 140.39 491.365 778.13 98.565 1056.61 550.685" fill="#e6e6e6"/><path d="M912.45626,548.60385l-.45787,13.88335-3.663,29.69494L895.973,594.11039l-3.20508-11.95511V566.72934s6.868-10.79816,5.03656-18.12549S912.45626,548.60385,912.45626,548.60385Z" transform="translate(-35 -95.2825)" fill="#fbbebe"/><circle cx="875.18609" cy="439.36875" r="15.14397" fill="#2f2e41"/><polygon points="837.622 665.95 838.537 684.723 848.61 681.976 847.695 666.866 837.622 665.95" fill="#fbbebe"/><polygon points="905.844 664.119 910.652 683.578 918.893 681.747 914.544 662.745 905.844 664.119" fill="#fbbebe"/><path d="M859.80125,649.51262l-1.83148,5.95231s-5.49444,16.02544,0,16.94118,6.868-14.65183,6.868-14.65183l3.20509-5.49444Z" transform="translate(-35 -95.2825)" fill="#fbbebe"/><polygon points="830.754 537.289 822.97 555.146 834.757 560.338 841.285 537.289 830.754 537.289" fill="#575a89"/><polygon points="886.156 521.721 900.808 597.728 918.207 664.577 894.855 668.698 865.094 570.713 849.984 669.613 829.838 667.324 834.874 563.388 845.863 518.974 886.156 521.721" fill="#2f2e41"/><path d="M884.98408,778.63188c.91574,0,5.49444,5.03656,4.12083,10.531a81.31575,81.31575,0,0,0-1.83148,11.90461s-16.71224,5.72337-25.41177.22894,8.92846-11.67568,8.92846-11.67568l.91574-11.90461,13.27822-2.74722Z" transform="translate(-35 -95.2825)" fill="#2f2e41"/><path d="M955.26708,778.63188c.91574,0,5.49444,5.03656,4.12083,10.531a81.31575,81.31575,0,0,0-1.83148,11.90461s-16.71225,5.72337-25.41177.22894,8.92846-11.67568,8.92846-11.67568l.91574-11.90461,13.27822-2.74722Z" transform="translate(-35 -95.2825)" fill="#2f2e41"/><circle cx="870.58822" cy="442.96778" r="12.36248" fill="#fbbebe"/><path d="M901.46739,584.49512l9.15739-31.593,3.20509,1.83148,17.85692,44.87123-8.24165,21.97775s-40.29254-2.74722-40.29254-3.20509,4.12083-53.11288,4.12083-53.11288l7.99594-9.24827.24571,6.501Z" transform="translate(-35 -95.2825)" fill="#575a89"/><path d="M935.34975,556.1072s-.45787-4.12083-3.663-3.20509-19.583-.13278-19.583-.13278-4.68413,5.62722,1.26817,17.074,12.59142,90.42927,12.59142,90.42927l21.29094-5.2655-10.98887-71.42768Z" transform="translate(-35 -95.2825)" fill="#2f2e41"/><polygon points="863.033 458.306 841.285 475.934 842.658 506.612 833.501 568.882 845.405 571.629 862.347 461.283 863.033 458.306" fill="#2f2e41"/><path d="M933.51827,600.06269l-10.07313,3.20509s-7.32592,15.1097-2.28935,16.94118,7.08927-11.4262,7.08927-11.4262l9.394-3.22563Z" transform="translate(-35 -95.2825)" fill="#fbbebe"/><path d="M879.03177,570.759l-.47161-1.5265-2.2756,1.5265a37.08641,37.08641,0,0,0-4.5787,12.82035c-.91574,6.86805-7.78379,51.73928-7.78379,51.73928l13.7361-1.37361Z" transform="translate(-35 -95.2825)" fill="#2f2e41"/><polygon points="912.254 498.828 896.687 504.322 901.723 514.395 920.038 506.612 912.254 498.828" fill="#575a89"/><path d="M930.31318,555.19146c.45787,0,45.3291,26.09858,40.29253,36.62958a27.70707,27.70707,0,0,1-15.1097,13.73609l-10.98887-11.44674,5.49444-4.12083L933.0604,579.00069Z" transform="translate(-35 -95.2825)" fill="#2f2e41"/><path d="M923.11091,530.05139c-.2322-2.83411-1.58906-5.73909-4.09844-7.07666,1.26-2.53089,2.3862-5.41963,1.55556-8.12206a6.19854,6.19854,0,0,0-4.66957-4.17836,12.165,12.165,0,0,0-3.628.047l-5.65754.64169a12.35559,12.35559,0,0,0-5.30265,1.42791,6.1424,6.1424,0,0,0-.70942,9.85837c-3.9583,3.16614-6.60356,5.56957-8.40462,10.30759a17.01863,17.01863,0,0,1,10.69-3.827,10.1896,10.1896,0,0,1,10.70576,9.3364,18.8562,18.8562,0,0,0,.348,3.95315c.38476,1.2696,1.544,2.45911,2.85761,2.27361-.18218.02573-1.30374-3.34209-.51416-4.89661l.01238-.025a1.47965,1.47965,0,0,1,.804-.68988,2.31553,2.31553,0,0,1,3.0779,1.61037c.43919,1.68677,1.142,3.83909,1.75582,3.26777.8039-.74819.4657-7.34525.68263-8.36794A19.20154,19.20154,0,0,0,923.11091,530.05139Z" transform="translate(-35 -95.2825)" fill="#2f2e41"/><path d="M918.95019,522.92944s-12.44349.81154-18.39473-.27051" transform="translate(-35 -95.2825)" fill="#d0cde1"/><path d="M918.2445,521.2644c1.26011-2.53089,2.38624-5.41961,1.55557-8.12206a6.13553,6.13553,0,0,0-2.1706-3.051,6.21288,6.21288,0,0,1,3.3186,3.73984c.83067,2.70244-.29547,5.59117-1.55557,8.12206C918.39305,521.804,920.75389,522.602,918.2445,521.2644Z" transform="translate(-35 -95.2825)" fill="#2f2e41"/><path d="M139.85,701.57748l18.5-18.12994a104.20327,104.20327,0,0,1-21.12-7.77,105.25961,105.25961,0,0,1-50.79-54.93,104.84549,104.84549,0,1,1,202.16-39.02q0,3.36-.22,6.68a105.39154,105.39154,0,0,1-1.59,12.79,99.03778,99.03778,0,0,1-3.78,19.18994c-8.29,27.80005-27.85,53.51-48.55,73.49005l-51.12,49.34h47.18a59.50971,59.50971,0,0,1,59.5,59.5H97.36a141.59533,141.59533,0,0,1,39.15-97.75Q138.145,703.24256,139.85,701.57748Z" transform="translate(-35 -95.2825)" fill="#ff0000"/><path d="M266.2,516.95749l-45.07,26.02-89.61,51.74-45.08,26.03a104.17848,104.17848,0,0,1-6.58-25.08l52.65-30.4,62.64-36.16,52.63-30.4A104.66244,104.66244,0,0,1,266.2,516.95749Z" transform="translate(-35 -95.2825)" fill="#3f3d56"/><path d="M288.38,588.4075a105.39154,105.39154,0,0,1-1.59,12.79,99.03778,99.03778,0,0,1-3.78,19.18994l-146.5,84.58q1.635-1.72494,3.34-3.39l18.5-18.12994a104.20327,104.20327,0,0,1-21.12-7.77Z" transform="translate(-35 -95.2825)" fill="#3f3d56"/><circle cx="148.77148" cy="486.44328" r="53.83186" fill="#fff"/><path d="M579.85,697.55753a104.83366,104.83366,0,0,1-209.43,7.03c-.16-2.32-.24-4.67-.24-7.03a104.84362,104.84362,0,0,1,206.01-27.52v.01a104.04491,104.04491,0,0,1,3.65,26.76v.01C579.85,697.06754,579.85,697.30753,579.85,697.55753Z" transform="translate(-35 -95.2825)" fill="#ff0000"/><path d="M533.41,610.48752l-57.6,33.25-47.83,27.62-57.56,33.23c-.16-2.32-.24-4.67-.24-7.03a104.94059,104.94059,0,0,1,2.58-23.2l133.3-76.96A104.48877,104.48877,0,0,1,533.41,610.48752Z" transform="translate(-35 -95.2825)" fill="#3f3d56"/><path d="M579.84,696.80753v.01l-66.16,38.19-.02.01-25.56994,14.77-66.14,38.19a104.41668,104.41668,0,0,1-21.32-16.57l47.31-27.32,80.91-46.71,47.34-27.33A104.04491,104.04491,0,0,1,579.84,696.80753Z" transform="translate(-35 -95.2825)" fill="#3f3d56"/><circle cx="440.01486" cy="602.27375" r="53.83186" fill="#fff"/><path d="M719.04,687.45749l2.05-2.01a104.74392,104.74392,0,0,1-79.22-95.45q-.195-3.105-.19-6.27a104.8254,104.8254,0,0,1,209.64-1.52c.02.51.02,1.01.02,1.52a105.8659,105.8659,0,0,1-1.81,19.47,92.20441,92.20441,0,0,1-1.43005,9.74v.01c-6.26,31.4-27.87,60.69995-50.9,82.93l-51.12,49.34h47.18a59.50971,59.50971,0,0,1,59.5,59.5H660.09a141.60712,141.60712,0,0,1,42.5-101.14Z" transform="translate(-35 -95.2825)" fill="#ff0000"/><path d="M824.36,513.51749l-177.59,102.53a103.89636,103.89636,0,0,1-4.9-26.05l162.4-93.76A104.97477,104.97477,0,0,1,824.36,513.51749Z" transform="translate(-35 -95.2825)" fill="#3f3d56"/><path d="M851.34,583.72751a105.8659,105.8659,0,0,1-1.81,19.47,92.20441,92.20441,0,0,1-1.43005,9.74v.01l-129.06,74.51,2.05-2.01a104.16986,104.16986,0,0,1-28.32-11.7l158.55-91.54C851.34,582.7175,851.34,583.2175,851.34,583.72751Z" transform="translate(-35 -95.2825)" fill="#3f3d56"/><circle cx="711.50905" cy="488.44328" r="53.83186" fill="#fff"/><path d="M1151,699.88748c0,.74-.01,1.49-.02,2.23a104.82868,104.82868,0,0,1-209.17,7.63c-.32-3.25-.47-6.53-.47-9.86005a104.80993,104.80993,0,0,1,165.56-85.46,104.65727,104.65727,0,0,1,44.1,85.46Z" transform="translate(-35 -95.2825)" fill="#ff0000"/><path d="M1106.9,614.42752l-165.09,95.32c-.32-3.25-.47-6.53-.47-9.86005a103.78873,103.78873,0,0,1,1.88995-19.84l137.25-79.24A104.30966,104.30966,0,0,1,1106.9,614.42752Z" transform="translate(-35 -95.2825)" fill="#3f3d56"/><path d="M1151,699.88748c0,.74-.01,1.49-.02,2.23l-155.3,89.66a104.67982,104.67982,0,0,1-22.01-16.17l174.34-100.66A104.55179,104.55179,0,0,1,1151,699.88748Z" transform="translate(-35 -95.2825)" fill="#3f3d56"/><circle cx="1011.16953" cy="604.60677" r="53.83186" fill="#fff"/><path d="M368.90243,669.62068v8.89079s-63.63933-4.67937-66.91488-9.82667,4.21143-39.30664,4.21143-39.30664l55.21647,10.76253Z" transform="translate(-35 -95.2825)" fill="#2f2e41"/><path d="M368.90243,669.62068v8.89079s-63.63933-4.67937-66.91488-9.82667,4.21143-39.30664,4.21143-39.30664l55.21647,10.76253Z" transform="translate(-35 -95.2825)" opacity="0.3"/><path d="M313.686,694.4213l34.62728,48.66537,4.67936,3.27555-13.57015,20.12126-42.5822-49.60124s-12.63428-12.16634-6.55111-19.18539S313.686,694.4213,313.686,694.4213Z" transform="translate(-35 -95.2825)" fill="#2f2e41"/><path d="M350.65292,746.36222s7.019-2.80761,11.23047,2.80762l-6.08317,14.03809s-14.974,22.92888-21.05713,22.46094-4.67937-9.35873-2.80762-10.2946S338.45,765.35071,338.45,765.35071Z" transform="translate(-35 -95.2825)" fill="#2f2e41"/><path d="M340.79912,781.03266l.02714,13.99493a12.9802,12.9802,0,0,1-15.4419,7.019c-11.23047-2.80762-1.87174-11.69841-1.87174-11.69841l2.80761-7.487Z" transform="translate(-35 -95.2825)" fill="#2f2e41"/><circle cx="309.33578" cy="428.1081" r="14.03809" fill="#a0616a"/><polygon points="296.935 427.874 294.128 446.124 307.23 464.841 316.589 436.297 296.935 427.874" fill="#a0616a"/><polygon points="300.679 451.739 313.29 446.358 315.185 538.307 275.878 535.499 289.448 447.527 294.74 442.146 300.679 451.739" fill="#575a89"/><path d="M336.1469,555.44423l.34865-3.5128,3.86277.70518,8.67418-13.26042,7.23565,3.9017,19.65333,12.63428-8.42285,53.81267v36.967s10.29459,19.18539,1.87174,31.81967L357.672,654.17878s-21.993-37.90284-21.52506-49.60124S336.1469,555.44423,336.1469,555.44423Z" transform="translate(-35 -95.2825)" fill="#2f2e41"/><path d="M327.724,550.29693l2.168-13.858-4.50768,3.09549-21.05713,9.82666-10.2946,126.34279,24.80062,8.89079S335.211,561.5274,327.724,550.29693Z" transform="translate(-35 -95.2825)" fill="#2f2e41"/><path d="M309.00659,627.50641l45.85776,1.87175s4.21142,25.26856.93587,45.38982-15.4419,109.49708-15.4419,109.49708H324.44849l6.08317-71.12631-1.87174-43.05014L315.08976,696.293l-24.80062,1.40381Z" transform="translate(-35 -95.2825)" fill="#2f2e41"/><path d="M349.9698,498.91118c1.09088-.17678,2.29711-.68323,3.22233-.07888a4.275,4.275,0,0,1,1.11468,1.48544c1.071,1.748,2.94609,2.8019,4.63849,3.95881s3.38059,2.67148,3.68725,4.69845c.264,1.74525-.56284,3.47457-.58763,5.23951-.03137,2.23272,1.17971,4.6531.03635,6.57111-.5227.87685-1.45236,1.44174-2.02405,2.28746-1.00956,1.49345-1.00522,3.90006-2.70869,4.48981a35.07786,35.07786,0,0,0-.35847-6.37838,4.16617,4.16617,0,0,0-.5427-1.73418c-.76219-1.13935-2.32423-1.31172-3.664-1.60169a12.59714,12.59714,0,0,1-8.216-6.07946c.85732,1.01561-.11556,2.73231-1.42168,2.97833a4.34085,4.34085,0,0,1-3.5674-1.42072A8.5453,8.5453,0,0,1,333.686,525.02a4.63594,4.63594,0,0,0-1.90315-4.12145c-1.35245-.95555-3.28534-1.23957-4.09127-2.68617a5.07366,5.07366,0,0,1-.01367-3.67834l1.147-4.55395a7.00761,7.00761,0,0,1,3.774-5.61383l3.43836-2.19948a12.36372,12.36372,0,0,1,3.52344-1.77407c1.12532-.282,2.26525.06634,3.36778-.23572.91126-.24966,1.65153-.90309,2.599-1.11194C346.99012,498.7226,348.49773,499.14974,349.9698,498.91118Z" transform="translate(-35 -95.2825)" fill="#2f2e41"/><path d="M302.45549,640.14069s7.95491,20.5892-.46794,21.52507-7.95492-18.24951-7.95492-18.24951Z" transform="translate(-35 -95.2825)" fill="#a0616a"/><polygon points="274.007 454.546 271.755 452.946 269.327 453.611 256.693 500.872 252.949 552.345 270.263 545.326 269.327 508.827 274.007 454.546" fill="#2f2e41"/><polygon points="323.608 552.813 318.461 558.428 316.171 548.344 323.608 552.813" fill="#a0616a"/><path d="M371.71005,556.3801l2.37388-1.64921,1.83755.71334s15.90983,45.85775,12.63428,57.08822-28.07618,41.17839-28.07618,41.17839L349.24911,641.5445l21.05713-31.35173-6.5511-7.487Z" transform="translate(-35 -95.2825)" fill="#2f2e41"/><polygon points="294.358 631.579 292.188 656.95 294.358 621.164 295.532 622.814 294.358 631.579" opacity="0.3"/><polygon points="311.39 645.101 305.799 685.75 313.547 647.57 311.39 645.101" opacity="0.3"/><rect y="706.52502" width="1130" height="2" fill="#3f3d56"/><circle cx="599" cy="598.52502" r="27" fill="#3f3d56"/><path d="M917.44531,214.57115s-36.96018,16.694-44.04844,32.10392S917.44531,214.57115,917.44531,214.57115Z" transform="translate(-35 -95.2825)" fill="#e6e6e6"/><path d="M916.6443,197.8967s-34.06026-4.59144-44.39282,3.25487S916.6443,197.8967,916.6443,197.8967Z" transform="translate(-35 -95.2825)" fill="#e6e6e6"/><path d="M926.3916,190.02986s-17.13216-53.94665-12.98122-59.28645S926.3916,190.02986,926.3916,190.02986Z" transform="translate(-35 -95.2825)" fill="#e6e6e6"/><path d="M932.86692,201.89286s9.19539-54.52813,18.82865-54.52813S932.86692,201.89286,932.86692,201.89286Z" transform="translate(-35 -95.2825)" fill="#e6e6e6"/><path d="M938.26448,202.43677s31.61431-26.19886,96.38509-18.20158S938.26448,202.43677,938.26448,202.43677Z" transform="translate(-35 -95.2825)" fill="#e6e6e6"/><path d="M958.31258,205.50913s55.37707-.9693,58.48814,6.78511S958.31258,205.50913,958.31258,205.50913Z" transform="translate(-35 -95.2825)" fill="#e6e6e6"/><path d="M947.51745,213.56s33.448,20.2741,26.91221,26.51228S947.51745,213.56,947.51745,213.56Z" transform="translate(-35 -95.2825)" fill="#e6e6e6"/><path d="M1003.03526,237.82873s27.75891,15.168,21.59026,25.28S1003.03526,237.82873,1003.03526,237.82873Z" transform="translate(-35 -95.2825)" fill="#e6e6e6"/><path d="M951.37286,225.69434s57.83105,82.91831,52.43348,87.9743S951.37286,225.69434,951.37286,225.69434Z" transform="translate(-35 -95.2825)" fill="#e6e6e6"/><path d="M940.57773,219.62715s24.34829,53.17993,19.37925,58.3502S940.57773,219.62715,940.57773,219.62715Z" transform="translate(-35 -95.2825)" fill="#e6e6e6"/><path d="M930.277,217.60475s-21.91366,84.797-8.46664,83.92279S930.277,217.60475,930.277,217.60475Z" transform="translate(-35 -95.2825)" fill="#e6e6e6"/><path d="M922.70822,221.81986s-36.7842,55.17339-33.41777,60.98437S922.70822,221.81986,922.70822,221.81986Z" transform="translate(-35 -95.2825)" fill="#e6e6e6"/><path d="M911.6676,184.66745s-32.06955-49.67787-61.725-44.86341S911.6676,184.66745,911.6676,184.66745Z" transform="translate(-35 -95.2825)" fill="#e6e6e6"/><path d="M886.60208,181.20159s-42.40944-4.0448-39.32512,6.06719S886.60208,181.20159,886.60208,181.20159Z" transform="translate(-35 -95.2825)" fill="#e6e6e6"/><path d="M897.39721,143.78723s-2.31324-14.15679-6.16865-11.12319S897.39721,143.78723,897.39721,143.78723Z" transform="translate(-35 -95.2825)" fill="#e6e6e6"/><path d="M936.46485,153.80414s10.58074-58.30717,5.78527-58.52106S936.46485,153.80414,936.46485,153.80414Z" transform="translate(-35 -95.2825)" fill="#e6e6e6"/><path d="M985.30041,161.98881s4.62648-15.168,9.253-11.12319S985.30041,161.98881,985.30041,161.98881Z" transform="translate(-35 -95.2825)" fill="#e6e6e6"/><path d="M941.34881,296.47826s-6.16865,59.66074,5.39756,58.64954S941.34881,296.47826,941.34881,296.47826Z" transform="translate(-35 -95.2825)" fill="#e6e6e6"/><path d="M289.51051,372.53492s-34.99019,11.371-41.70064,21.8673S289.51051,372.53492,289.51051,372.53492Z" transform="translate(-35 -95.2825)" fill="#e6e6e6"/><path d="M288.75219,361.17726s-32.24484-3.12742-42.02667,2.217S288.75219,361.17726,288.75219,361.17726Z" transform="translate(-35 -95.2825)" fill="#e6e6e6"/><path d="M297.98,355.81883s-16.219-36.74528-12.28931-40.38244S297.98,355.81883,297.98,355.81883Z" transform="translate(-35 -95.2825)" fill="#e6e6e6"/><path d="M304.11015,363.89921s8.70527-37.14136,17.82507-37.14136S304.11015,363.89921,304.11015,363.89921Z" transform="translate(-35 -95.2825)" fill="#e6e6e6"/><path d="M309.22,364.26969s29.92925-17.84513,91.24773-12.39785S309.22,364.26969,309.22,364.26969Z" transform="translate(-35 -95.2825)" fill="#e6e6e6"/><path d="M328.19955,366.3624s52.42545-.66023,55.3707,4.62162S328.19955,366.3624,328.19955,366.3624Z" transform="translate(-35 -95.2825)" fill="#e6e6e6"/><path d="M317.9798,371.84615s31.66524,13.80952,25.47778,18.0586S317.9798,371.84615,317.9798,371.84615Z" transform="translate(-35 -95.2825)" fill="#e6e6e6"/><path d="M370.5385,388.37661s26.27934,10.33154,20.43949,17.21923S370.5385,388.37661,370.5385,388.37661Z" transform="translate(-35 -95.2825)" fill="#e6e6e6"/><path d="M321.62971,380.11138s54.74864,56.47908,49.63877,59.92292S321.62971,380.11138,321.62971,380.11138Z" transform="translate(-35 -95.2825)" fill="#e6e6e6"/><path d="M311.41,375.97876s23.05053,36.22305,18.34634,39.74473S311.41,375.97876,311.41,375.97876Z" transform="translate(-35 -95.2825)" fill="#e6e6e6"/><path d="M301.65828,374.60123S280.91263,432.36,293.64292,431.7645,301.65828,374.60123,301.65828,374.60123Z" transform="translate(-35 -95.2825)" fill="#e6e6e6"/><path d="M294.49291,377.47231s-34.8236,37.58087-31.63659,41.539S294.49291,377.47231,294.49291,377.47231Z" transform="translate(-35 -95.2825)" fill="#e6e6e6"/><path d="M284.04075,352.16627s-30.36023-33.83764-58.43506-30.55831S284.04075,352.16627,284.04075,352.16627Z" transform="translate(-35 -95.2825)" fill="#e6e6e6"/><path d="M260.31123,349.80553s-40.149-2.75507-37.22907,4.13262S260.31123,349.80553,260.31123,349.80553Z" transform="translate(-35 -95.2825)" fill="#e6e6e6"/><path d="M270.531,324.32107s-2.19-9.64277-5.83986-7.57646S270.531,324.32107,270.531,324.32107Z" transform="translate(-35 -95.2825)" fill="#e6e6e6"/><path d="M307.51631,331.144s10.01678-39.71542,5.47691-39.8611S307.51631,331.144,307.51631,331.144Z" transform="translate(-35 -95.2825)" fill="#e6e6e6"/><path d="M353.74891,336.71892s4.37989-10.33154,8.75978-7.57646S353.74891,336.71892,353.74891,336.71892Z" transform="translate(-35 -95.2825)" fill="#e6e6e6"/><path d="M312.14,428.32523s-5.83986,40.63738,5.10987,39.94861S312.14,428.32523,312.14,428.32523Z" transform="translate(-35 -95.2825)" fill="#e6e6e6"/><path d="M589.51051,352.53492s-34.99019,11.371-41.70064,21.8673S589.51051,352.53492,589.51051,352.53492Z" transform="translate(-35 -95.2825)" fill="#ff0000"/><path d="M588.75219,341.17726s-32.24484-3.12742-42.02667,2.217S588.75219,341.17726,588.75219,341.17726Z" transform="translate(-35 -95.2825)" fill="#ff0000"/><path d="M597.98,335.81883s-16.219-36.74528-12.28931-40.38244S597.98,335.81883,597.98,335.81883Z" transform="translate(-35 -95.2825)" fill="#ff0000"/><path d="M604.11015,343.89921s8.70527-37.14136,17.82507-37.14136S604.11015,343.89921,604.11015,343.89921Z" transform="translate(-35 -95.2825)" fill="#ff0000"/><path d="M609.22,344.26969S664.7532,316.58751,668,331.2825,609.22,344.26969,609.22,344.26969Z" transform="translate(-35 -95.2825)" fill="#ff0000"/><path d="M628.19955,346.3624s52.42545-.66023,55.3707,4.62162S628.19955,346.3624,628.19955,346.3624Z" transform="translate(-35 -95.2825)" fill="#ff0000"/><path d="M617.9798,351.84615s31.66524,13.80952,25.47778,18.0586S617.9798,351.84615,617.9798,351.84615Z" transform="translate(-35 -95.2825)" fill="#ff0000"/><path d="M670.5385,368.37661s26.27934,10.33154,20.43949,17.21923S670.5385,368.37661,670.5385,368.37661Z" transform="translate(-35 -95.2825)" fill="#ff0000"/><path d="M621.62971,360.11138s54.74864,56.47908,49.63877,59.92292S621.62971,360.11138,621.62971,360.11138Z" transform="translate(-35 -95.2825)" fill="#ff0000"/><path d="M611.41,355.97876s23.05053,36.22305,18.34634,39.74473S611.41,355.97876,611.41,355.97876Z" transform="translate(-35 -95.2825)" fill="#ff0000"/><path d="M601.65828,354.60123S585.26971,389.878,598,389.2825,601.65828,354.60123,601.65828,354.60123Z" transform="translate(-35 -95.2825)" fill="#ff0000"/><path d="M594.49291,357.47231s-34.8236,37.58087-31.63659,41.539S594.49291,357.47231,594.49291,357.47231Z" transform="translate(-35 -95.2825)" fill="#ff0000"/><path d="M584.04075,332.16627S574.07483,309.00317,546,312.2825,584.04075,332.16627,584.04075,332.16627Z" transform="translate(-35 -95.2825)" fill="#ff0000"/><path d="M560.31123,329.80553s-40.149-2.75507-37.22907,4.13262S560.31123,329.80553,560.31123,329.80553Z" transform="translate(-35 -95.2825)" fill="#ff0000"/><path d="M570.531,304.32107s-2.18995-9.64277-5.83986-7.57646S570.531,304.32107,570.531,304.32107Z" transform="translate(-35 -95.2825)" fill="#ff0000"/><path d="M607.51631,311.144s10.01678-39.71542,5.47691-39.8611S607.51631,311.144,607.51631,311.144Z" transform="translate(-35 -95.2825)" fill="#ff0000"/><path d="M653.74891,316.71892s4.37989-10.33154,8.75978-7.57646S653.74891,316.71892,653.74891,316.71892Z" transform="translate(-35 -95.2825)" fill="#ff0000"/><path d="M612.14,408.32523s-5.83986,40.63738,5.10987,39.94861S612.14,408.32523,612.14,408.32523Z" transform="translate(-35 -95.2825)" fill="#ff0000"/></svg>